<svg xmlns="http://www.w3.org/2000/svg" version="1.0" width="256.000000pt" height="256.000000pt" viewBox="0 0 256.000000 256.000000" preserveAspectRatio="xMidYMid meet">

<g transform="translate(0.000000,256.000000) scale(0.100000,-0.100000)" fill="#000000" stroke="none" style="&#10;    fill: #fc0;&#10;">
<path d="M1170 2339 c-349 -34 -672 -254 -834 -569 -85 -165 -118 -303 -118 -490 0 -187 33 -325 118 -490 165 -320 484 -535 845 -569 584 -55 1103 375 1158 960 63 667 -499 1224 -1169 1158z m210 -566 c52 -108 99 -202 105 -209 6 -7 96 -25 225 -44 118 -17 220 -33 227 -35 6 -2 -63 -78 -154 -168 l-165 -163 39 -227 c21 -125 36 -227 31 -227 -4 0 -98 48 -208 106 l-200 105 -200 -105 c-110 -58 -204 -106 -208 -106 -5 0 10 102 31 227 l39 227 -165 163 c-91 90 -160 166 -154 168 7 2 109 18 227 35 129 19 219 37 225 44 6 7 53 101 105 209 52 108 97 196 100 196 3 0 48 -88 100 -196z"/>
</g>
</svg>